<mxfile host="Electron" modified="2024-05-25T19:46:52.217Z" agent="Mozilla/5.0 (Windows NT 10.0; Win64; x64) AppleWebKit/537.36 (KHTML, like Gecko) draw.io/24.4.0 Chrome/120.0.6099.109 Electron/28.1.0 Safari/537.36" etag="Wdc6pxH6y9z5_MQL0j5p" version="24.4.0" type="device">
  <diagram id="C5RBs43oDa-KdzZeNtuy" name="Page-1">
    <mxGraphModel dx="1124" dy="428" grid="1" gridSize="10" guides="1" tooltips="1" connect="1" arrows="1" fold="1" page="0" pageScale="1" pageWidth="827" pageHeight="1169" math="0" shadow="0">
      <root>
        <mxCell id="WIyWlLk6GJQsqaUBKTNV-0" />
        <mxCell id="WIyWlLk6GJQsqaUBKTNV-1" parent="WIyWlLk6GJQsqaUBKTNV-0" />
        <mxCell id="QKX1SGp3BmE-0Zulftwy-0" value="ReprodutorMusical" style="swimlane;fontStyle=1;align=center;verticalAlign=top;childLayout=stackLayout;horizontal=1;startSize=26;horizontalStack=0;resizeParent=1;resizeParentMax=0;resizeLast=0;collapsible=1;marginBottom=0;whiteSpace=wrap;html=1;" parent="WIyWlLk6GJQsqaUBKTNV-1" vertex="1">
          <mxGeometry x="140" y="242" width="160" height="138" as="geometry" />
        </mxCell>
        <mxCell id="QKX1SGp3BmE-0Zulftwy-1" value="+ field: type" style="text;strokeColor=none;fillColor=none;align=left;verticalAlign=top;spacingLeft=4;spacingRight=4;overflow=hidden;rotatable=0;points=[[0,0.5],[1,0.5]];portConstraint=eastwest;whiteSpace=wrap;html=1;" parent="QKX1SGp3BmE-0Zulftwy-0" vertex="1">
          <mxGeometry y="26" width="160" height="26" as="geometry" />
        </mxCell>
        <mxCell id="QKX1SGp3BmE-0Zulftwy-2" value="" style="line;strokeWidth=1;fillColor=none;align=left;verticalAlign=middle;spacingTop=-1;spacingLeft=3;spacingRight=3;rotatable=0;labelPosition=right;points=[];portConstraint=eastwest;strokeColor=inherit;" parent="QKX1SGp3BmE-0Zulftwy-0" vertex="1">
          <mxGeometry y="52" width="160" height="8" as="geometry" />
        </mxCell>
        <mxCell id="QKX1SGp3BmE-0Zulftwy-3" value="- tocar()" style="text;strokeColor=none;fillColor=none;align=left;verticalAlign=top;spacingLeft=4;spacingRight=4;overflow=hidden;rotatable=0;points=[[0,0.5],[1,0.5]];portConstraint=eastwest;whiteSpace=wrap;html=1;" parent="QKX1SGp3BmE-0Zulftwy-0" vertex="1">
          <mxGeometry y="60" width="160" height="26" as="geometry" />
        </mxCell>
        <mxCell id="QKX1SGp3BmE-0Zulftwy-20" value="- pausar()" style="text;strokeColor=none;fillColor=none;align=left;verticalAlign=top;spacingLeft=4;spacingRight=4;overflow=hidden;rotatable=0;points=[[0,0.5],[1,0.5]];portConstraint=eastwest;whiteSpace=wrap;html=1;" parent="QKX1SGp3BmE-0Zulftwy-0" vertex="1">
          <mxGeometry y="86" width="160" height="26" as="geometry" />
        </mxCell>
        <mxCell id="QKX1SGp3BmE-0Zulftwy-21" value="- selecionarMusica()" style="text;strokeColor=none;fillColor=none;align=left;verticalAlign=top;spacingLeft=4;spacingRight=4;overflow=hidden;rotatable=0;points=[[0,0.5],[1,0.5]];portConstraint=eastwest;whiteSpace=wrap;html=1;" parent="QKX1SGp3BmE-0Zulftwy-0" vertex="1">
          <mxGeometry y="112" width="160" height="26" as="geometry" />
        </mxCell>
        <mxCell id="QKX1SGp3BmE-0Zulftwy-4" value="NavegadorInternet" style="swimlane;fontStyle=1;align=center;verticalAlign=top;childLayout=stackLayout;horizontal=1;startSize=26;horizontalStack=0;resizeParent=1;resizeParentMax=0;resizeLast=0;collapsible=1;marginBottom=0;whiteSpace=wrap;html=1;" parent="WIyWlLk6GJQsqaUBKTNV-1" vertex="1">
          <mxGeometry x="420" y="242" width="160" height="138" as="geometry" />
        </mxCell>
        <mxCell id="QKX1SGp3BmE-0Zulftwy-5" value="+ field: type" style="text;strokeColor=none;fillColor=none;align=left;verticalAlign=top;spacingLeft=4;spacingRight=4;overflow=hidden;rotatable=0;points=[[0,0.5],[1,0.5]];portConstraint=eastwest;whiteSpace=wrap;html=1;" parent="QKX1SGp3BmE-0Zulftwy-4" vertex="1">
          <mxGeometry y="26" width="160" height="26" as="geometry" />
        </mxCell>
        <mxCell id="QKX1SGp3BmE-0Zulftwy-6" value="" style="line;strokeWidth=1;fillColor=none;align=left;verticalAlign=middle;spacingTop=-1;spacingLeft=3;spacingRight=3;rotatable=0;labelPosition=right;points=[];portConstraint=eastwest;strokeColor=inherit;" parent="QKX1SGp3BmE-0Zulftwy-4" vertex="1">
          <mxGeometry y="52" width="160" height="8" as="geometry" />
        </mxCell>
        <mxCell id="QKX1SGp3BmE-0Zulftwy-7" value="- exibirPagina()" style="text;strokeColor=none;fillColor=none;align=left;verticalAlign=top;spacingLeft=4;spacingRight=4;overflow=hidden;rotatable=0;points=[[0,0.5],[1,0.5]];portConstraint=eastwest;whiteSpace=wrap;html=1;" parent="QKX1SGp3BmE-0Zulftwy-4" vertex="1">
          <mxGeometry y="60" width="160" height="26" as="geometry" />
        </mxCell>
        <mxCell id="QKX1SGp3BmE-0Zulftwy-22" value="- adicionarNovaAba()" style="text;strokeColor=none;fillColor=none;align=left;verticalAlign=top;spacingLeft=4;spacingRight=4;overflow=hidden;rotatable=0;points=[[0,0.5],[1,0.5]];portConstraint=eastwest;whiteSpace=wrap;html=1;" parent="QKX1SGp3BmE-0Zulftwy-4" vertex="1">
          <mxGeometry y="86" width="160" height="26" as="geometry" />
        </mxCell>
        <mxCell id="QKX1SGp3BmE-0Zulftwy-23" value="- atualizarPagina()" style="text;strokeColor=none;fillColor=none;align=left;verticalAlign=top;spacingLeft=4;spacingRight=4;overflow=hidden;rotatable=0;points=[[0,0.5],[1,0.5]];portConstraint=eastwest;whiteSpace=wrap;html=1;" parent="QKX1SGp3BmE-0Zulftwy-4" vertex="1">
          <mxGeometry y="112" width="160" height="26" as="geometry" />
        </mxCell>
        <mxCell id="QKX1SGp3BmE-0Zulftwy-8" value="SmartPhone" style="swimlane;fontStyle=1;align=center;verticalAlign=top;childLayout=stackLayout;horizontal=1;startSize=26;horizontalStack=0;resizeParent=1;resizeParentMax=0;resizeLast=0;collapsible=1;marginBottom=0;whiteSpace=wrap;html=1;" parent="WIyWlLk6GJQsqaUBKTNV-1" vertex="1">
          <mxGeometry x="140" y="550" width="160" height="34" as="geometry" />
        </mxCell>
        <mxCell id="QKX1SGp3BmE-0Zulftwy-10" value="" style="line;strokeWidth=1;fillColor=none;align=left;verticalAlign=middle;spacingTop=-1;spacingLeft=3;spacingRight=3;rotatable=0;labelPosition=right;points=[];portConstraint=eastwest;strokeColor=inherit;" parent="QKX1SGp3BmE-0Zulftwy-8" vertex="1">
          <mxGeometry y="26" width="160" height="8" as="geometry" />
        </mxCell>
        <mxCell id="QKX1SGp3BmE-0Zulftwy-12" value="AparelhoTelefonico" style="swimlane;fontStyle=1;align=center;verticalAlign=top;childLayout=stackLayout;horizontal=1;startSize=26;horizontalStack=0;resizeParent=1;resizeParentMax=0;resizeLast=0;collapsible=1;marginBottom=0;whiteSpace=wrap;html=1;" parent="WIyWlLk6GJQsqaUBKTNV-1" vertex="1">
          <mxGeometry x="-150" y="242" width="160" height="166" as="geometry" />
        </mxCell>
        <mxCell id="QKX1SGp3BmE-0Zulftwy-13" value="- teclado" style="text;strokeColor=none;fillColor=none;align=left;verticalAlign=top;spacingLeft=4;spacingRight=4;overflow=hidden;rotatable=0;points=[[0,0.5],[1,0.5]];portConstraint=eastwest;whiteSpace=wrap;html=1;" parent="QKX1SGp3BmE-0Zulftwy-12" vertex="1">
          <mxGeometry y="26" width="160" height="26" as="geometry" />
        </mxCell>
        <mxCell id="QKX1SGp3BmE-0Zulftwy-17" value="- teclado" style="text;strokeColor=none;fillColor=none;align=left;verticalAlign=top;spacingLeft=4;spacingRight=4;overflow=hidden;rotatable=0;points=[[0,0.5],[1,0.5]];portConstraint=eastwest;whiteSpace=wrap;html=1;" parent="QKX1SGp3BmE-0Zulftwy-12" vertex="1">
          <mxGeometry y="52" width="160" height="26" as="geometry" />
        </mxCell>
        <mxCell id="QKX1SGp3BmE-0Zulftwy-14" value="" style="line;strokeWidth=1;fillColor=none;align=left;verticalAlign=middle;spacingTop=-1;spacingLeft=3;spacingRight=3;rotatable=0;labelPosition=right;points=[];portConstraint=eastwest;strokeColor=inherit;" parent="QKX1SGp3BmE-0Zulftwy-12" vertex="1">
          <mxGeometry y="78" width="160" height="10" as="geometry" />
        </mxCell>
        <mxCell id="QKX1SGp3BmE-0Zulftwy-15" value="- ligar()" style="text;strokeColor=none;fillColor=none;align=left;verticalAlign=top;spacingLeft=4;spacingRight=4;overflow=hidden;rotatable=0;points=[[0,0.5],[1,0.5]];portConstraint=eastwest;whiteSpace=wrap;html=1;" parent="QKX1SGp3BmE-0Zulftwy-12" vertex="1">
          <mxGeometry y="88" width="160" height="26" as="geometry" />
        </mxCell>
        <mxCell id="QKX1SGp3BmE-0Zulftwy-18" value="- atender()" style="text;strokeColor=none;fillColor=none;align=left;verticalAlign=top;spacingLeft=4;spacingRight=4;overflow=hidden;rotatable=0;points=[[0,0.5],[1,0.5]];portConstraint=eastwest;whiteSpace=wrap;html=1;" parent="QKX1SGp3BmE-0Zulftwy-12" vertex="1">
          <mxGeometry y="114" width="160" height="26" as="geometry" />
        </mxCell>
        <mxCell id="QKX1SGp3BmE-0Zulftwy-19" value="- iniciarCorreioVoz()" style="text;strokeColor=none;fillColor=none;align=left;verticalAlign=top;spacingLeft=4;spacingRight=4;overflow=hidden;rotatable=0;points=[[0,0.5],[1,0.5]];portConstraint=eastwest;whiteSpace=wrap;html=1;" parent="QKX1SGp3BmE-0Zulftwy-12" vertex="1">
          <mxGeometry y="140" width="160" height="26" as="geometry" />
        </mxCell>
        <mxCell id="wzJwNs0tew-lsDUnHvRj-0" style="rounded=0;orthogonalLoop=1;jettySize=auto;html=1;entryX=0.682;entryY=1.02;entryDx=0;entryDy=0;entryPerimeter=0;" edge="1" parent="WIyWlLk6GJQsqaUBKTNV-1" source="QKX1SGp3BmE-0Zulftwy-8" target="QKX1SGp3BmE-0Zulftwy-19">
          <mxGeometry relative="1" as="geometry" />
        </mxCell>
        <mxCell id="wzJwNs0tew-lsDUnHvRj-1" style="rounded=0;orthogonalLoop=1;jettySize=auto;html=1;entryX=0.513;entryY=0.983;entryDx=0;entryDy=0;entryPerimeter=0;" edge="1" parent="WIyWlLk6GJQsqaUBKTNV-1" source="QKX1SGp3BmE-0Zulftwy-8" target="QKX1SGp3BmE-0Zulftwy-21">
          <mxGeometry relative="1" as="geometry" />
        </mxCell>
        <mxCell id="wzJwNs0tew-lsDUnHvRj-2" style="rounded=0;orthogonalLoop=1;jettySize=auto;html=1;entryX=0.375;entryY=0.983;entryDx=0;entryDy=0;entryPerimeter=0;" edge="1" parent="WIyWlLk6GJQsqaUBKTNV-1" source="QKX1SGp3BmE-0Zulftwy-8" target="QKX1SGp3BmE-0Zulftwy-23">
          <mxGeometry relative="1" as="geometry" />
        </mxCell>
        <mxCell id="wzJwNs0tew-lsDUnHvRj-3" value="Nokia" style="swimlane;fontStyle=1;align=center;verticalAlign=top;childLayout=stackLayout;horizontal=1;startSize=26;horizontalStack=0;resizeParent=1;resizeParentMax=0;resizeLast=0;collapsible=1;marginBottom=0;whiteSpace=wrap;html=1;" vertex="1" parent="WIyWlLk6GJQsqaUBKTNV-1">
          <mxGeometry x="-220" y="470" width="100" height="34" as="geometry" />
        </mxCell>
        <mxCell id="wzJwNs0tew-lsDUnHvRj-4" value="" style="line;strokeWidth=1;fillColor=none;align=left;verticalAlign=middle;spacingTop=-1;spacingLeft=3;spacingRight=3;rotatable=0;labelPosition=right;points=[];portConstraint=eastwest;strokeColor=inherit;" vertex="1" parent="wzJwNs0tew-lsDUnHvRj-3">
          <mxGeometry y="26" width="100" height="8" as="geometry" />
        </mxCell>
        <mxCell id="wzJwNs0tew-lsDUnHvRj-5" style="rounded=0;orthogonalLoop=1;jettySize=auto;html=1;entryX=0.338;entryY=1.099;entryDx=0;entryDy=0;entryPerimeter=0;" edge="1" parent="WIyWlLk6GJQsqaUBKTNV-1" source="wzJwNs0tew-lsDUnHvRj-3" target="QKX1SGp3BmE-0Zulftwy-19">
          <mxGeometry relative="1" as="geometry" />
        </mxCell>
        <mxCell id="wzJwNs0tew-lsDUnHvRj-7" value="iPod" style="swimlane;fontStyle=1;align=center;verticalAlign=top;childLayout=stackLayout;horizontal=1;startSize=26;horizontalStack=0;resizeParent=1;resizeParentMax=0;resizeLast=0;collapsible=1;marginBottom=0;whiteSpace=wrap;html=1;" vertex="1" parent="WIyWlLk6GJQsqaUBKTNV-1">
          <mxGeometry x="80" y="420" width="100" height="34" as="geometry" />
        </mxCell>
        <mxCell id="wzJwNs0tew-lsDUnHvRj-8" value="" style="line;strokeWidth=1;fillColor=none;align=left;verticalAlign=middle;spacingTop=-1;spacingLeft=3;spacingRight=3;rotatable=0;labelPosition=right;points=[];portConstraint=eastwest;strokeColor=inherit;" vertex="1" parent="wzJwNs0tew-lsDUnHvRj-7">
          <mxGeometry y="26" width="100" height="8" as="geometry" />
        </mxCell>
        <mxCell id="wzJwNs0tew-lsDUnHvRj-9" style="rounded=0;orthogonalLoop=1;jettySize=auto;html=1;entryX=0.155;entryY=0.956;entryDx=0;entryDy=0;entryPerimeter=0;" edge="1" parent="WIyWlLk6GJQsqaUBKTNV-1" source="wzJwNs0tew-lsDUnHvRj-7" target="QKX1SGp3BmE-0Zulftwy-21">
          <mxGeometry relative="1" as="geometry" />
        </mxCell>
        <mxCell id="wzJwNs0tew-lsDUnHvRj-10" value="Walkman" style="swimlane;fontStyle=1;align=center;verticalAlign=top;childLayout=stackLayout;horizontal=1;startSize=26;horizontalStack=0;resizeParent=1;resizeParentMax=0;resizeLast=0;collapsible=1;marginBottom=0;whiteSpace=wrap;html=1;" vertex="1" parent="WIyWlLk6GJQsqaUBKTNV-1">
          <mxGeometry x="250" y="420" width="100" height="34" as="geometry" />
        </mxCell>
        <mxCell id="wzJwNs0tew-lsDUnHvRj-11" value="" style="line;strokeWidth=1;fillColor=none;align=left;verticalAlign=middle;spacingTop=-1;spacingLeft=3;spacingRight=3;rotatable=0;labelPosition=right;points=[];portConstraint=eastwest;strokeColor=inherit;" vertex="1" parent="wzJwNs0tew-lsDUnHvRj-10">
          <mxGeometry y="26" width="100" height="8" as="geometry" />
        </mxCell>
        <mxCell id="wzJwNs0tew-lsDUnHvRj-12" style="rounded=0;orthogonalLoop=1;jettySize=auto;html=1;entryX=0.78;entryY=1.115;entryDx=0;entryDy=0;entryPerimeter=0;" edge="1" parent="WIyWlLk6GJQsqaUBKTNV-1" source="wzJwNs0tew-lsDUnHvRj-10" target="QKX1SGp3BmE-0Zulftwy-21">
          <mxGeometry relative="1" as="geometry" />
        </mxCell>
        <mxCell id="wzJwNs0tew-lsDUnHvRj-13" value="IExplorer" style="swimlane;fontStyle=1;align=center;verticalAlign=top;childLayout=stackLayout;horizontal=1;startSize=26;horizontalStack=0;resizeParent=1;resizeParentMax=0;resizeLast=0;collapsible=1;marginBottom=0;whiteSpace=wrap;html=1;" vertex="1" parent="WIyWlLk6GJQsqaUBKTNV-1">
          <mxGeometry x="490" y="430" width="100" height="34" as="geometry" />
        </mxCell>
        <mxCell id="wzJwNs0tew-lsDUnHvRj-14" value="" style="line;strokeWidth=1;fillColor=none;align=left;verticalAlign=middle;spacingTop=-1;spacingLeft=3;spacingRight=3;rotatable=0;labelPosition=right;points=[];portConstraint=eastwest;strokeColor=inherit;" vertex="1" parent="wzJwNs0tew-lsDUnHvRj-13">
          <mxGeometry y="26" width="100" height="8" as="geometry" />
        </mxCell>
        <mxCell id="wzJwNs0tew-lsDUnHvRj-15" style="rounded=0;orthogonalLoop=1;jettySize=auto;html=1;entryX=0.651;entryY=1.036;entryDx=0;entryDy=0;entryPerimeter=0;" edge="1" parent="WIyWlLk6GJQsqaUBKTNV-1" source="wzJwNs0tew-lsDUnHvRj-13" target="QKX1SGp3BmE-0Zulftwy-23">
          <mxGeometry relative="1" as="geometry" />
        </mxCell>
      </root>
    </mxGraphModel>
  </diagram>
</mxfile>
